<?xml version="1.0" encoding="UTF-8"?>
<svg version="1.1" xmlns="http://www.w3.org/2000/svg" width="200" height="200">
<path d="M0 0 C66 0 132 0 200 0 C200 66 200 132 200 200 C134 200 68 200 0 200 C0 134 0 68 0 0 Z " fill="#F4FCFE" transform="translate(0,0)"/>
<path d="M0 0 C3.86411815 12.90228519 7.55381985 25.83769881 10.9375 38.875 C11.24373291 40.05102783 11.54996582 41.22705566 11.86547852 42.4387207 C14 50.74059199 14 50.74059199 14 53 C8.66164461 54.92471317 3.65020618 56.39891424 -2 57 C-4.30257686 52.00347344 -5.79448753 47.2456612 -6.9375 41.875 C-8.53944764 34.40403343 -10.73444875 27.36304155 -13 20 C-13.33 32.21 -13.66 44.42 -14 57 C-19.094375 57.020625 -24.18875 57.04125 -29.4375 57.0625 C-31.04681396 57.071604 -32.65612793 57.08070801 -34.31420898 57.09008789 C-35.57048096 57.09258545 -36.82675293 57.09508301 -38.12109375 57.09765625 C-40.06133423 57.10551147 -40.06133423 57.10551147 -42.04077148 57.11352539 C-45 57 -45 57 -46 56 C-46.09353163 54.31198015 -46.11744791 52.62004793 -46.11352539 50.92944336 C-46.11344986 49.84839828 -46.11337433 48.76735321 -46.11329651 47.65354919 C-46.10813522 46.4775264 -46.10297394 45.3015036 -46.09765625 44.08984375 C-46.0962413 42.89267227 -46.09482635 41.69550079 -46.09336853 40.46205139 C-46.08774979 36.62050934 -46.07519411 32.77902457 -46.0625 28.9375 C-46.05748741 26.34049563 -46.05292409 23.74349035 -46.04882812 21.14648438 C-46.03777427 14.76430321 -46.02101792 8.3821557 -46 2 C-44.45675049 2.01571045 -44.45675049 2.01571045 -42.88232422 2.03173828 C-39.04691072 2.06807599 -35.2115123 2.09095038 -31.37597656 2.10986328 C-29.71937497 2.11988957 -28.06279093 2.13351406 -26.40625 2.15087891 C-24.01818495 2.17527621 -21.63035492 2.18651694 -19.2421875 2.1953125 C-18.50757294 2.20563507 -17.77295837 2.21595764 -17.01608276 2.22659302 C-11.02558754 2.22788528 -5.92263911 -0.34839054 0 0 Z " fill="#212829" transform="translate(116,55)"/>
<path d="M0 0 C4.29 0 8.58 0 13 0 C13 7.92 13 15.84 13 24 C8.71 24 4.42 24 0 24 C0 16.08 0 8.16 0 0 Z " fill="#D3D3D3" transform="translate(87,59)"/>
<path d="M0 0 C3.96 0 7.92 0 12 0 C13.71271502 8.8490276 14.10222397 15.24073347 12 24 C8.04 24 4.08 24 0 24 C0 16.08 0 8.16 0 0 Z " fill="#F45654" transform="translate(73,86)"/>
<path d="M0 0 C3.96 0 7.92 0 12 0 C12 7.92 12 15.84 12 24 C8.04 24 4.08 24 0 24 C-0.79991844 15.73417611 -0.9889574 8.24131164 0 0 Z " fill="#01C1E5" transform="translate(87,86)"/>
<path d="M0 0 C2.27475041 2.27475041 2.53850483 3.42727159 3.2890625 6.5 C3.61777344 7.8303125 3.61777344 7.8303125 3.953125 9.1875 C4.17484375 10.115625 4.3965625 11.04375 4.625 12 C4.85445312 12.928125 5.08390625 13.85625 5.3203125 14.8125 C7 21.69122024 7 21.69122024 7 24 C2.84055256 25.30492469 -0.65036909 26.12019705 -5 26 C-5.84358924 23.2944888 -6.67504771 20.58619457 -7.5 17.875 C-7.85771484 16.73417969 -7.85771484 16.73417969 -8.22265625 15.5703125 C-9.52612223 11.25025382 -10.291817 7.56693609 -10 3 C-5.05 1.515 -5.05 1.515 0 0 Z " fill="#EBEBEB" transform="translate(113,57)"/>
<path d="M0 0 C2.60695579 7.96007374 4.67615763 15.72598519 6 24 C2.04 24.66 -1.92 25.32 -6 26 C-7.00319394 22.54256374 -8.00269131 19.08413374 -9 15.625 C-9.28617187 14.64015625 -9.57234375 13.6553125 -9.8671875 12.640625 C-10.13789062 11.69960937 -10.40859375 10.75859375 -10.6875 9.7890625 C-10.93886719 8.91975098 -11.19023438 8.05043945 -11.44921875 7.15478516 C-12 5 -12 5 -12 3 C-10.56445975 2.49440092 -9.1264798 1.9957251 -7.6875 1.5 C-6.88699219 1.2215625 -6.08648437 0.943125 -5.26171875 0.65625 C-3 0 -3 0 0 0 Z " fill="#A871C7" transform="translate(121,83)"/>
<path d="M0 0 C3.96 0 7.92 0 12 0 C12 7.92 12 15.84 12 24 C8.04 24 4.08 24 0 24 C0 16.08 0 8.16 0 0 Z " fill="#EDEDED" transform="translate(73,59)"/>
<path d="M0 0 C3.96 0 7.92 0 12 0 C12 0.33 12 0.66 12 1 C8.7 1 5.4 1 2 1 C2 9.25 2 17.5 2 26 C5.96 26 9.92 26 14 26 C14 23.36 14 20.72 14 18 C14.66 18 15.32 18 16 18 C16 20.64 16 23.28 16 26 C20.29 26 24.58 26 29 26 C29 17.42 29 8.84 29 0 C29.33 0 29.66 0 30 0 C30 9.24 30 18.48 30 28 C20.1 28 10.2 28 0 28 C0 18.76 0 9.52 0 0 Z " fill="#090303" transform="translate(71,84)"/>
<path d="M0 0 C1.98 0 3.96 0 6 0 C6.99 3.3 7.98 6.6 9 10 C10.32 6.7 11.64 3.4 13 0 C14.65 0 16.3 0 18 0 C18 4.95 18 9.9 18 15 C16.68 15 15.36 15 14 15 C14 12.36 14 9.72 14 7 C13.34 7 12.68 7 12 7 C11.855625 8.11375 11.71125 9.2275 11.5625 10.375 C11 14 11 14 10 16 C8.68 15.67 7.36 15.34 6 15 C5.34 12.69 4.68 10.38 4 8 C4 10.64 4 13.28 4 16 C2.68 16 1.36 16 0 16 C0 10.72 0 5.44 0 0 Z " fill="#C65E5D" transform="translate(19,124)"/>
<path d="M0 0 C2.79192205 -0.05380578 5.5828141 -0.09357669 8.375 -0.125 C9.1690625 -0.14175781 9.963125 -0.15851563 10.78125 -0.17578125 C12.85492015 -0.19335473 14.92883241 -0.10335168 17 0 C19 2 19 2 19.1953125 3.9453125 C19.13020833 5.96354167 19.06510417 7.98177083 19 10 C19.66 10.33 20.32 10.66 21 11 C19.125 11.625 19.125 11.625 17 12 C15 10 15 10 14.8046875 8.0546875 C14.86979167 6.03645833 14.93489583 4.01822917 15 2 C14.01 2 13.02 2 12 2 C12 5.3 12 8.6 12 12 C10.68 11.67 9.36 11.34 8 11 C8 8.03 8 5.06 8 2 C7.01 2 6.02 2 5 2 C5 5.3 5 8.6 5 12 C3.68 11.67 2.36 11.34 1 11 C0.67 7.37 0.34 3.74 0 0 Z " fill="#C96766" transform="translate(148,128)"/>
<path d="M0 0 C1.423125 0.061875 2.84625 0.12375 4.3125 0.1875 C4.3125 3.4875 4.3125 6.7875 4.3125 10.1875 C4.9725 10.5175 5.6325 10.8475 6.3125 11.1875 C2.08033142 12.35499478 -1.43901061 12.38579188 -5.6875 11.1875 C-7.84252531 7.95496204 -8.15606135 6.93599077 -7.6875 3.1875 C-5.39599413 0.11513066 -3.74182014 -0.16268783 0 0 Z " fill="#CA6B6A" transform="translate(92.6875,127.8125)"/>
<path d="M0 0 C1.423125 0.061875 2.84625 0.12375 4.3125 0.1875 C4.3125 3.4875 4.3125 6.7875 4.3125 10.1875 C4.9725 10.5175 5.6325 10.8475 6.3125 11.1875 C2.04826686 12.36384018 -1.39553517 12.2880038 -5.6875 11.1875 C-7.6875 9.1875 -7.6875 9.1875 -8 6.25 C-7.6875 3.1875 -7.6875 3.1875 -6.4609375 1.5078125 C-4.16502375 -0.20148011 -2.82891288 -0.12299621 0 0 Z " fill="#C65F5E" transform="translate(47.6875,127.8125)"/>
<path d="M0 0 C0.98965019 2.96895056 1.23779528 4.9086614 1 8 C-1 10 -1 10 -4.125 10.125 C-5.07375 10.08375 -6.0225 10.0425 -7 10 C-7 10.99 -7 11.98 -7 13 C-4.36 13 -1.72 13 1 13 C0.67 14.65 0.34 16.3 0 18 C-0.33 17.01 -0.66 16.02 -1 15 C-3.31 15 -5.62 15 -8 15 C-8.98329211 10.94392005 -9.23600253 7.16937798 -9 3 C-7 1 -7 1 -3.9375 0.9375 C-2.4834375 0.9684375 -2.4834375 0.9684375 -1 1 C-0.67 0.67 -0.34 0.34 0 0 Z " fill="#C45857" transform="translate(81,127)"/>
<path d="M0 0 C-3.44468978 3.16911459 -6.44300168 3.45230942 -11 4 C-10.65066406 5.07378906 -10.30132812 6.14757812 -9.94140625 7.25390625 C-9.48147751 8.69001026 -9.02185858 10.12621352 -8.5625 11.5625 C-8.33240234 12.26697266 -8.10230469 12.97144531 -7.86523438 13.69726562 C-6.45346322 18.13718362 -5.52934885 22.36971871 -5 27 C-3.35 27 -1.7 27 0 27 C-0.33 27.66 -0.66 28.32 -1 29 C-3.5625 29.625 -3.5625 29.625 -6 30 C-8.37713502 24.84386472 -9.939486 19.84358152 -11.1875 14.3125 C-11.45336914 13.19391602 -11.45336914 13.19391602 -11.72460938 12.05273438 C-12.52526824 8.58733443 -13 5.57503056 -13 2 C-11.39935157 1.46845258 -9.79431126 0.95011647 -8.1875 0.4375 C-7.29417969 0.14746094 -6.40085937 -0.14257812 -5.48046875 -0.44140625 C-3 -1 -3 -1 0 0 Z " fill="#17141A" transform="translate(120,82)"/>
<path d="M0 0 C1.60875 -0.04125 3.2175 -0.0825 4.875 -0.125 C5.77992187 -0.14820312 6.68484375 -0.17140625 7.6171875 -0.1953125 C10 0 10 0 12 2 C12.26991906 4.68839385 12.08737357 7.29141936 12 10 C12.66 10.33 13.32 10.66 14 11 C12.125 11.625 12.125 11.625 10 12 C8 10 8 10 7.8046875 8.0546875 C7.90234375 5.02734375 7.90234375 5.02734375 8 2 C7.01 2 6.02 2 5 2 C5 5.3 5 8.6 5 12 C3.68 12 2.36 12 1 12 C0.67 8.04 0.34 4.08 0 0 Z " fill="#CB6E6D" transform="translate(110,128)"/>
<path d="M0 0 C0.66 0 1.32 0 2 0 C2.66 2.97 3.32 5.94 4 9 C-0.1196377 10.29243536 -3.66831683 11.26252625 -8 11 C-8.33 8.36 -8.66 5.72 -9 3 C-4.545 2.505 -4.545 2.505 0 2 C0 1.34 0 0.68 0 0 Z " fill="#FBFBFB" transform="translate(116,72)"/>
<path d="M0 0 C2.4294516 3.6441774 2.16179575 5.71241272 2 10 C2.66 10.33 3.32 10.66 4 11 C0.25 12.125 0.25 12.125 -2 11 C-2 8.03 -2 5.06 -2 2 C-2.99 2.33 -3.98 2.66 -5 3 C-5.33 5.64 -5.66 8.28 -6 11 C-6.99 11 -7.98 11 -9 11 C-9 7.7 -9 4.4 -9 1 C-5.66208701 0.16552175 -3.3667387 -0.35439355 0 0 Z " fill="#C76361" transform="translate(66,128)"/>
<path d="M0 0 C3.96 0 7.92 0 12 0 C11.67 1.32 11.34 2.64 11 4 C10.01 3.01 9.02 2.02 8 1 C8 5.62 8 10.24 8 15 C6.68 15 5.36 15 4 15 C4 10.38 4 5.76 4 1 C2.68 1.99 1.36 2.98 0 4 C0 2.68 0 1.36 0 0 Z " fill="#C65F5E" transform="translate(125,124)"/>
<path d="M0 0 C2 1 2 1 3.03515625 3.73046875 C3.37417969 4.87128906 3.71320313 6.01210937 4.0625 7.1875 C4.40410156 8.31542969 4.74570313 9.44335938 5.09765625 10.60546875 C5.92888744 13.73248134 6.52915623 16.80117481 7 20 C5.54494642 20.52992692 4.08581873 21.0486789 2.625 21.5625 C1.40683594 21.99755859 1.40683594 21.99755859 0.1640625 22.44140625 C-2 23 -2 23 -4 22 C-4.33 21.34 -4.66 20.68 -5 20 C-2.03 19.67 0.94 19.34 4 19 C3.71125 17.96359375 3.4225 16.9271875 3.125 15.859375 C2.74973453 14.48965604 2.37474921 13.1198603 2 11.75 C1.80921875 11.06808594 1.6184375 10.38617188 1.421875 9.68359375 C0.50042956 6.29399088 0 3.54221024 0 0 Z " fill="#211E24" transform="translate(123,88)"/>
<path d="M0 0 C-0.33 1.65 -0.66 3.3 -1 5 C-2.32 5.33 -3.64 5.66 -5 6 C-4.34 4.02 -3.68 2.04 -3 0 C-3.99 0.66 -4.98 1.32 -6 2 C-6.25015873 5.58357241 -6.25015873 5.58357241 -6 9 C-4.02 8.67 -2.04 8.34 0 8 C0 8.66 0 9.32 0 10 C-6.40096618 11.32850242 -6.40096618 11.32850242 -8.9375 9.9375 C-10.47555213 7.13281671 -10.39310741 5.14485925 -10 2 C-7.64463991 -2.2950684 -4.23605512 -0.87918125 0 0 Z " fill="#C55A59" transform="translate(181,129)"/>
<path d="M0 0 C1.98 0 3.96 0 6 0 C5.67 4.95 5.34 9.9 5 15 C3.68 15 2.36 15 1 15 C0.67 10.05 0.34 5.1 0 0 Z " fill="#C55958" transform="translate(101,124)"/>
<path d="M0 0 C1.65 0 3.3 0 5 0 C5 4.95 5 9.9 5 15 C3.68 15 2.36 15 1 15 C0.93941406 14.39671875 0.87882812 13.7934375 0.81640625 13.171875 C0.69072266 11.97304687 0.69072266 11.97304687 0.5625 10.75 C0.48128906 9.96109375 0.40007813 9.1721875 0.31640625 8.359375 C0.05536338 6.0104271 0.05536338 6.0104271 -0.59765625 3.828125 C-1 2 -1 2 0 0 Z " fill="#C14B49" transform="translate(32,124)"/>
<path d="M0 0 C1.65 0 3.3 0 5 0 C7.03684712 4.07369424 7.0257259 6.58937864 6 11 C4.35 10.67 2.7 10.34 1 10 C0.67 9.01 0.34 8.02 0 7 C1.65 7.33 3.3 7.66 5 8 C5 7.34 5 6.68 5 6 C4.34 6 3.68 6 3 6 C3 4.68 3 3.36 3 2 C2.34 2 1.68 2 1 2 C1 2.66 1 3.32 1 4 C0.34 4 -0.32 4 -1 4 C-0.67 2.68 -0.34 1.36 0 0 Z " fill="#130D17" transform="translate(115,91)"/>
<path d="M0 0 C1.65 0.33 3.3 0.66 5 1 C5.6875 2.8125 5.6875 2.8125 6 5 C4.5625 6.75 4.5625 6.75 3 8 C3.99 8.33 4.98 8.66 6 9 C6 9.66 6 10.32 6 11 C3.69 11 1.38 11 -1 11 C-0.67 10.21625 -0.34 9.4325 0 8.625 C1.11866511 6.15667503 1.11866511 6.15667503 1 4 C0.34 4 -0.32 4 -1 4 C-0.67 2.68 -0.34 1.36 0 0 Z " fill="#000D10" transform="translate(91,92)"/>
<path d="M0 0 C2.29946417 3.44919626 2.80769035 6.1381022 3.625 10.1875 C3.88539062 11.45980469 4.14578125 12.73210937 4.4140625 14.04296875 C4.60742188 15.01878906 4.80078125 15.99460937 5 17 C4.01 17.33 3.02 17.66 2 18 C1.87625 16.865625 1.7525 15.73125 1.625 14.5625 C1.41875 13.386875 1.2125 12.21125 1 11 C0.34 10.67 -0.32 10.34 -1 10 C-1.4140625 7.93359375 -1.4140625 7.93359375 -1.625 5.4375 C-1.69976562 4.61121094 -1.77453125 3.78492187 -1.8515625 2.93359375 C-1.90054688 2.29550781 -1.94953125 1.65742187 -2 1 C-1.34 0.67 -0.68 0.34 0 0 Z " fill="#2C2B2F" transform="translate(120,72)"/>
<path d="M0 0 C0 3.3 0 6.6 0 10 C0.66 10.33 1.32 10.66 2 11 C0.125 11.625 0.125 11.625 -2 12 C-4.39763185 9.60236815 -4.34280586 8.66726502 -4.625 5.375 C-4.69976562 4.55773437 -4.77453125 3.74046875 -4.8515625 2.8984375 C-4.90054688 2.27195313 -4.94953125 1.64546875 -5 1 C-3 0 -3 0 0 0 Z " fill="#C65E5C" transform="translate(52,128)"/>
<path d="M0 0 C1.32 0 2.64 0 4 0 C4 3.3 4 6.6 4 10 C4.99 10.33 5.98 10.66 7 11 C5.34385343 11.38218767 3.67542976 11.71395102 2 12 C1 11 1 11 0.90234375 8.93359375 C0.91974609 7.69802734 0.91974609 7.69802734 0.9375 6.4375 C0.94652344 5.61121094 0.95554688 4.78492188 0.96484375 3.93359375 C0.97644531 3.29550781 0.98804688 2.65742188 1 2 C0.34 1.67 -0.32 1.34 -1 1 C-0.67 0.67 -0.34 0.34 0 0 Z " fill="#C45553" transform="translate(140,128)"/>
<path d="M0 0 C1.32 0.66 2.64 1.32 4 2 C4 3.98 4 5.96 4 8 C2.35 8.33 0.7 8.66 -1 9 C-1.09765625 2.84765625 -1.09765625 2.84765625 -1 1 C-0.67 0.67 -0.34 0.34 0 0 Z " fill="#EEE7E9" transform="translate(90,129)"/>
<path d="M0 0 C1.65 0 3.3 0 5 0 C5 2.97 5 5.94 5 9 C5.66 9.33 6.32 9.66 7 10 C5.68 10.33 4.36 10.66 3 11 C0.68593888 7.52890832 0.91380385 6.05121887 1 2 C0.67 1.34 0.34 0.68 0 0 Z " fill="#C14C4B" transform="translate(92,129)"/>
<path d="M0 0 C0.99 0.33 1.98 0.66 3 1 C4.39044898 4.87862084 5 7.86462003 5 12 C5.99 12.33 6.98 12.66 8 13 C6.68 13 5.36 13 4 13 C3.67 13.66 3.34 14.32 3 15 C2.49363393 13.25183142 1.99515381 11.50137737 1.5 9.75 C1.2215625 8.77546875 0.943125 7.8009375 0.65625 6.796875 C0 4 0 4 0 0 Z " fill="#282829" transform="translate(103,71)"/>
<path d="M0 0 C1.32 0 2.64 0 4 0 C4 2.97 4 5.94 4 9 C4.66 9 5.32 9 6 9 C6 9.66 6 10.32 6 11 C4.02 11 2.04 11 0 11 C0 10.34 0 9.68 0 9 C0.66 9 1.32 9 2 9 C2 6.69 2 4.38 2 2 C1.34 2 0.68 2 0 2 C0 1.34 0 0.68 0 0 Z " fill="#0C0404" transform="translate(76,92)"/>
<path d="M0 0 C0.99 0.33 1.98 0.66 3 1 C3 3.31 3 5.62 3 8 C1.68 8.33 0.36 8.66 -1 9 C-1.09765625 2.84765625 -1.09765625 2.84765625 -1 1 C-0.67 0.67 -0.34 0.34 0 0 Z " fill="#F2F5F7" transform="translate(45,129)"/>
<path d="M0 0 C0.66 0 1.32 0 2 0 C2 0.99 2 1.98 2 3 C4.64 3 7.28 3 10 3 C9.67 4.65 9.34 6.3 9 8 C8.67 7.01 8.34 6.02 8 5 C5.69 5 3.38 5 1 5 C0.67 3.35 0.34 1.7 0 0 Z " fill="#C55957" transform="translate(72,137)"/>
<path d="M0 0 C0.99 0 1.98 0 3 0 C3 3.3 3 6.6 3 10 C2.01 10 1.02 10 0 10 C0 6.7 0 3.4 0 0 Z " fill="#BF4442" transform="translate(57,129)"/>
<path d="M0 0 C0.33 0 0.66 0 1 0 C1.66 4.95 2.32 9.9 3 15 C1.68 15 0.36 15 -1 15 C-0.67 10.05 -0.34 5.1 0 0 Z " fill="#D59292" transform="translate(20,125)"/>
<path d="M0 0 C1.485 0.99 1.485 0.99 3 2 C3 3.32 3 4.64 3 6 C4.65 6 6.3 6 8 6 C7.67 6.66 7.34 7.32 7 8 C4.4375 8.625 4.4375 8.625 2 9 C0.50178941 5.62902617 0 3.79557881 0 0 Z " fill="#0F0C11" transform="translate(112,103)"/>
<path d="M0 0 C0.66 0 1.32 0 2 0 C2 2.64 2 5.28 2 8 C3.65 7.67 5.3 7.34 7 7 C7 7.66 7 8.32 7 9 C4.69 9 2.38 9 0 9 C-0.84454356 5.62182575 -1.10844919 3.32534757 0 0 Z " fill="#EAD7D9" transform="translate(31,131)"/>
<path d="M0 0 C0.33 0 0.66 0 1 0 C1.33 2.31 1.66 4.62 2 7 C3.32 7.33 4.64 7.66 6 8 C3.625 8.625 3.625 8.625 1 9 C-1 7 -1 7 -1.1875 3.9375 C-1 1 -1 1 0 0 Z " fill="#C45655" transform="translate(87,131)"/>
<path d="M0 0 C0.99 0.33 1.98 0.66 3 1 C3 2.65 3 4.3 3 6 C1.68 6 0.36 6 -1 6 C-1.042721 4.33388095 -1.04063832 2.66617115 -1 1 C-0.67 0.67 -0.34 0.34 0 0 Z " fill="#ECE0E1" transform="translate(76,129)"/>
<path d="M0 0 C1.65 0.33 3.3 0.66 5 1 C5.33 2.32 5.66 3.64 6 5 C5.01 5 4.02 5 3 5 C2.67 4.34 2.34 3.68 2 3 C1.01 3.33 0.02 3.66 -1 4 C-0.67 2.68 -0.34 1.36 0 0 Z " fill="#001B20" transform="translate(91,92)"/>
<path d="M0 0 C0.33 1.32 0.66 2.64 1 4 C-2.3 3.34 -5.6 2.68 -9 2 C-5.23312136 0.11656068 -3.97041037 -0.22057835 0 0 Z " fill="#262728" transform="translate(116,55)"/>
<path d="M0 0 C0.99 0.33 1.98 0.66 3 1 C2.67 3.97 2.34 6.94 2 10 C1.34 10 0.68 10 0 10 C0 6.7 0 3.4 0 0 Z " fill="#BF4543" transform="translate(112,129)"/>
<path d="M0 0 C1.65 0 3.3 0 5 0 C5.33 1.32 5.66 2.64 6 4 C5.01 4 4.02 4 3 4 C3 3.34 3 2.68 3 2 C2.34 2 1.68 2 1 2 C1 2.66 1 3.32 1 4 C0.34 4 -0.32 4 -1 4 C-0.67 2.68 -0.34 1.36 0 0 Z " fill="#19111E" transform="translate(115,91)"/>
<path d="M0 0 C1.98 0 3.96 0 6 0 C6.33 0.99 6.66 1.98 7 3 C4.69 3 2.38 3 0 3 C0 2.01 0 1.02 0 0 Z " fill="#464646" transform="translate(76,72)"/>
<path d="M0 0 C2.31 0 4.62 0 7 0 C7 0.99 7 1.98 7 3 C4.69 3 2.38 3 0 3 C0 2.01 0 1.02 0 0 Z " fill="#454545" transform="translate(90,67)"/>
<path d="M0 0 C1.98 0 3.96 0 6 0 C6 0.99 6 1.98 6 3 C4.02 3 2.04 3 0 3 C0 2.01 0 1.02 0 0 Z " fill="#424242" transform="translate(76,67)"/>
<path d="M0 0 C0.66 0 1.32 0 2 0 C1.6875 2.375 1.6875 2.375 1 5 C0.01 5.66 -0.98 6.32 -2 7 C-2.125 4.625 -2.125 4.625 -2 2 C-1.34 1.34 -0.68 0.68 0 0 Z " fill="#ECE1E3" transform="translate(176,129)"/>
<path d="M0 0 C-0.33 0.99 -0.66 1.98 -1 3 C-2.98 3.33 -4.96 3.66 -7 4 C-7 3.01 -7 2.02 -7 1 C-4 0 -4 0 0 0 Z " fill="#363636" transform="translate(113,61)"/>
<path d="M0 0 C1.98 0 3.96 0 6 0 C6.33 0.99 6.66 1.98 7 3 C4.69 3 2.38 3 0 3 C0 2.01 0 1.02 0 0 Z " fill="#E8D1D3" transform="translate(74,137)"/>
<path d="M0 0 C0.33 0 0.66 0 1 0 C1.33 2.31 1.66 4.62 2 7 C1.01 7 0.02 7 -1 7 C-1.625 4.625 -1.625 4.625 -2 2 C-1.34 1.34 -0.68 0.68 0 0 Z " fill="#C14C4A" transform="translate(74,130)"/>
<path d="M0 0 C-0.33 0.99 -0.66 1.98 -1 3 C-2.98 3.33 -4.96 3.66 -7 4 C-6.67 3.01 -6.34 2.02 -6 1 C-3.90006779 0.25486277 -2.22568901 0 0 0 Z " fill="#353535" transform="translate(115,71)"/>
<path d="M0 0 C-0.33 0.99 -0.66 1.98 -1 3 C-2.98 3.33 -4.96 3.66 -7 4 C-6.67 3.01 -6.34 2.02 -6 1 C-3 0 -3 0 0 0 Z " fill="#2C2C2C" transform="translate(114,66)"/>
<path d="M0 0 C0.99 0.495 0.99 0.495 2 1 C2.73075648 3.3140622 3.40138258 5.64828869 4 8 C3.01 8 2.02 8 1 8 C0.67 5.36 0.34 2.72 0 0 Z " fill="#151417" transform="translate(123,88)"/>
<path d="M0 0 C-3.625 3 -3.625 3 -7 3 C-7 2.01 -7 1.02 -7 0 C-3.98968256 -0.93423645 -3.13349732 -1.04449911 0 0 Z " fill="#1F1A21" transform="translate(120,82)"/>
</svg>
